<svg width="31" height="30" viewBox="0 0 31 30" fill="none" xmlns="http://www.w3.org/2000/svg">
<path fill-rule="evenodd" clip-rule="evenodd" d="M0.112549 6.5625C0.112549 6.04474 0.532282 5.625 1.05005 5.625H1.98755C6.11648 5.625 9.1632 7.95055 11.1257 10.1584C12.0459 11.1936 12.749 12.2253 13.2376 13.0312C13.7261 12.2253 14.4292 11.1936 15.3494 10.1584C17.3119 7.95055 20.3586 5.625 24.4875 5.625V7.5C21.1165 7.5 18.5382 9.3932 16.7507 11.4041C15.8629 12.4029 15.194 13.4056 14.7472 14.1596C14.545 14.5009 14.3895 14.7891 14.2809 15C14.3895 15.2109 14.545 15.4991 14.7472 15.8404C15.194 16.5944 15.8629 17.5971 16.7507 18.5959C18.5382 20.6068 21.1165 22.5 24.4875 22.5V24.375C20.3586 24.375 17.3119 22.0495 15.3494 19.8416C14.4292 18.8064 13.7261 17.7747 13.2376 16.9688C12.749 17.7747 12.0459 18.8064 11.1257 19.8416C9.1632 22.0495 6.11648 24.375 1.98755 24.375H1.05005C0.532282 24.375 0.112549 23.9553 0.112549 23.4375C0.112549 22.9197 0.532282 22.5 1.05005 22.5H1.98755C5.35862 22.5 7.93689 20.6068 9.72435 18.5959C10.6122 17.5971 11.2811 16.5944 11.7279 15.8404C11.9301 15.4991 12.0856 15.2109 12.1942 15C12.0856 14.7891 11.9301 14.5009 11.7279 14.1596C11.2811 13.4056 10.6122 12.4029 9.72435 11.4041C7.93689 9.3932 5.35862 7.5 1.98755 7.5H1.05005C0.532282 7.5 0.112549 7.08027 0.112549 6.5625Z" fill="#111827"/>
<path d="M24.4875 10.2492V2.8758C24.4875 2.47838 24.9511 2.26128 25.2564 2.5157L29.6804 6.2024C29.9053 6.3898 29.9053 6.7352 29.6804 6.92261L25.2564 10.6093C24.9511 10.8637 24.4875 10.6466 24.4875 10.2492Z" fill="#111827"/>
<path d="M24.4875 27.1242V19.7508C24.4875 19.3534 24.9511 19.1363 25.2564 19.3907L29.6804 23.0774C29.9053 23.2648 29.9053 23.6102 29.6804 23.7976L25.2564 27.4843C24.9511 27.7387 24.4875 27.5216 24.4875 27.1242Z" fill="#111827"/>
</svg>
